<svg version="1.0" xmlns="http://www.w3.org/2000/svg"
 viewBox="0 0 3000 3000"
 preserveAspectRatio="xMidYMid meet">
<g transform="translate(0,3000) scale(0.1,-0.1)" fill="#CC1111" stroke="none">
<path d="M9905 28027 c-159 -56 -271 -138 -348 -255 -103 -155 -128 -357 -67
-541 27 -81 68 -146 185 -291 179 -223 692 -868 830 -1043 77 -98 184 -233
238 -300 115 -143 156 -193 275 -342 174 -217 580 -723 720 -896 78 -97 142
-183 142 -191 0 -8 -51 -58 -113 -111 -183 -155 -421 -408 -598 -637 -83 -107
-257 -363 -339 -499 -133 -221 -311 -614 -384 -846 -67 -216 -99 -326 -116
-411 -5 -27 -17 -78 -25 -114 -8 -36 -26 -150 -39 -255 -59 -462 -57 -744 10
-1153 8 -51 17 -99 20 -106 9 -24 -21 -33 -141 -44 -405 -38 -1447 -185 -1825
-258 -41 -8 -100 -19 -130 -24 -317 -58 -954 -195 -1160 -249 -41 -11 -235
-60 -430 -109 -195 -50 -402 -103 -460 -120 -58 -16 -118 -33 -135 -36 -119
-26 -933 -303 -1145 -389 -47 -19 -182 -74 -300 -122 -118 -48 -235 -96 -260
-107 -25 -12 -65 -30 -90 -41 -231 -103 -730 -366 -849 -446 -14 -10 -107 -71
-206 -136 -610 -401 -1029 -783 -1456 -1330 -364 -466 -669 -1068 -854 -1685
-49 -164 -120 -480 -150 -665 -8 -55 -20 -127 -25 -160 -29 -186 -54 -516 -54
-730 -1 -206 28 -570 63 -810 102 -686 313 -1317 641 -1915 122 -221 294 -479
484 -725 259 -336 709 -777 1059 -1040 128 -97 410 -284 542 -360 91 -53 487
-255 499 -255 3 0 34 -13 68 -29 336 -153 684 -261 1158 -360 317 -66 693
-101 1085 -101 420 0 785 42 1185 136 157 37 194 46 370 94 173 47 476 156
633 229 37 17 69 31 71 31 4 0 144 65 335 156 74 36 140 63 147 60 7 -2 20
-49 29 -103 46 -264 83 -431 129 -593 92 -318 194 -658 205 -679 5 -9 23 -57
39 -106 33 -97 218 -561 273 -685 101 -229 373 -748 516 -985 195 -324 480
-708 767 -1035 565 -641 1369 -1226 2106 -1532 926 -385 1882 -497 2830 -332
47 8 109 19 139 24 228 39 755 202 968 300 24 11 45 20 49 20 9 0 358 173 451
224 78 42 183 103 228 133 369 242 532 361 796 582 85 71 359 323 383 353 11
13 60 68 110 123 310 340 486 567 731 939 73 111 140 215 149 231 9 17 27 46
39 66 133 214 348 630 489 949 16 36 33 74 38 85 135 296 397 1078 490 1460
48 202 100 468 100 521 0 16 6 38 13 47 11 16 24 11 152 -52 140 -69 334 -161
340 -161 2 0 36 -15 77 -34 40 -18 105 -47 143 -64 302 -132 884 -289 1279
-347 314 -45 382 -49 811 -50 450 0 511 5 845 61 487 83 978 226 1327 385 674
308 1088 581 1599 1055 347 321 647 686 931 1130 415 649 695 1443 798 2259
33 260 39 371 39 680 0 386 -12 535 -75 923 -43 266 -137 631 -238 917 -48
139 -57 161 -92 242 -11 24 -19 45 -19 47 0 9 -76 169 -162 341 -164 327 -362
633 -583 900 -202 245 -251 300 -384 435 -466 471 -1121 924 -1858 1286 -116
57 -214 104 -217 104 -3 0 -34 13 -70 30 -115 52 -457 190 -626 252 -91 33
-201 73 -244 90 -194 73 -713 239 -901 288 -66 17 -163 43 -215 57 -52 14
-111 29 -130 33 -19 4 -136 33 -260 65 -124 31 -270 67 -325 80 -55 12 -172
40 -260 60 -166 38 -322 72 -485 105 -445 91 -608 121 -790 150 -74 11 -205
31 -290 45 -85 13 -256 38 -380 55 -124 17 -252 35 -285 40 -63 10 -81 12
-498 60 -142 16 -263 32 -268 36 -6 3 -8 17 -4 31 30 123 65 486 65 688 0 262
-34 607 -81 825 -12 52 -25 113 -29 135 -12 52 -51 197 -84 305 -109 364 -303
775 -534 1135 -89 138 -305 423 -409 542 -111 125 -320 330 -428 419 -46 38
-84 76 -84 84 0 8 30 52 67 96 37 45 93 115 125 155 133 170 764 959 907 1134
86 105 188 231 227 280 39 50 142 180 230 291 143 181 232 292 476 593 263
322 276 339 316 420 47 93 62 162 63 291 1 186 -51 319 -173 440 -147 147
-413 225 -602 176 -167 -44 -266 -118 -433 -326 -33 -41 -118 -147 -189 -235
-71 -88 -179 -221 -239 -295 -61 -74 -190 -234 -287 -355 -208 -261 -752 -944
-958 -1204 -80 -101 -182 -229 -227 -285 -103 -128 -315 -398 -357 -453 -18
-23 -38 -45 -46 -48 -7 -3 -47 10 -90 29 -335 151 -820 290 -1201 345 -270 39
-379 45 -735 45 -436 0 -649 -20 -1020 -95 -275 -56 -658 -182 -909 -298 -86
-40 -90 -41 -106 -24 -15 16 -263 326 -765 958 -87 110 -256 321 -375 469
-118 148 -262 328 -320 401 -124 157 -500 624 -626 778 -49 60 -102 128 -119
151 -99 139 -264 313 -349 368 -90 58 -170 80 -306 84 -108 3 -120 1 -205 -29z
m4045 -9640 c0 -8 -9 -40 -19 -73 -11 -32 -31 -104 -46 -159 -27 -100 -109
-378 -125 -425 -5 -14 -25 -79 -46 -145 -121 -394 -288 -833 -460 -1213 -13
-29 -24 -54 -24 -57 0 -2 -16 -38 -35 -79 -19 -42 -35 -78 -35 -80 0 -2 -27
-61 -60 -131 -33 -70 -60 -129 -60 -131 0 -7 -232 -470 -273 -546 -19 -35 -72
-133 -117 -218 -45 -85 -125 -229 -178 -320 -52 -91 -113 -196 -135 -235 -175
-306 -536 -868 -738 -1152 -239 -335 -675 -891 -889 -1133 -451 -511 -1063
-1088 -1464 -1380 -48 -36 -120 -89 -160 -118 -195 -143 -502 -339 -721 -460
-426 -234 -979 -455 -1305 -522 -25 -5 -79 -17 -120 -25 -239 -52 -363 -66
-615 -72 -356 -8 -563 12 -903 87 -220 48 -346 86 -532 157 -148 57 -369 163
-498 240 -41 24 -76 43 -79 43 -2 0 -66 41 -141 91 -572 383 -1008 906 -1315
1577 -96 209 -182 478 -247 772 -17 79 -40 257 -52 398 -12 154 -5 606 12 717
5 39 15 104 21 145 46 325 134 593 329 995 147 303 276 493 523 772 315 356
668 615 1309 962 152 82 360 182 528 253 52 22 109 46 125 53 255 108 570 220
870 310 50 15 101 31 115 36 14 4 61 18 105 30 44 12 112 30 150 41 75 21 87
24 210 58 315 85 926 228 1290 301 28 5 95 19 150 30 55 12 145 29 200 39 55
10 186 35 290 55 215 41 591 104 800 134 77 12 201 30 275 41 476 73 1061 137
1895 210 66 6 194 17 285 25 212 18 647 49 1065 75 706 43 845 48 845 27z
m2410 2 c863 -43 1769 -111 2485 -185 132 -13 284 -29 337 -34 391 -38 803
-93 1278 -170 69 -11 152 -24 185 -30 183 -29 254 -41 390 -64 83 -15 197 -36
255 -47 58 -11 155 -29 215 -40 162 -28 589 -119 940 -201 121 -28 236 -54
255 -58 54 -11 411 -105 570 -150 355 -100 834 -252 1040 -330 47 -18 110 -41
140 -52 30 -12 123 -50 205 -86 83 -35 184 -79 225 -97 196 -85 616 -308 805
-428 500 -317 931 -721 1188 -1114 266 -408 464 -904 542 -1358 40 -232 55
-593 35 -842 -49 -604 -268 -1231 -618 -1768 -275 -423 -600 -749 -1016 -1020
-151 -99 -191 -121 -381 -215 -378 -186 -654 -272 -1145 -357 -147 -25 -173
-27 -490 -27 -402 -1 -510 12 -920 110 -662 159 -1350 502 -2040 1018 -207
154 -292 223 -500 405 -594 520 -915 862 -1503 1598 -258 324 -491 644 -688
948 -199 305 -234 362 -404 650 -65 110 -145 245 -178 300 -139 230 -519 966
-675 1306 -40 86 -102 228 -138 315 -36 88 -74 178 -85 201 -26 57 -140 350
-201 513 -75 202 -218 641 -252 770 -8 30 -44 159 -80 286 -36 127 -66 239
-66 248 0 20 5 20 290 5z m-1306 -2881 c68 -162 170 -391 246 -553 73 -155
251 -512 311 -625 28 -52 78 -147 111 -210 125 -236 291 -517 445 -753 46 -70
83 -132 83 -138 0 -13 -2477 -12 -2485 2 -4 5 15 42 43 82 108 157 294 477
427 732 90 174 170 326 230 440 105 196 244 482 352 720 70 154 163 374 163
385 0 6 8 10 18 10 12 0 28 -25 56 -92z m2613 -4257 c23 -25 81 -93 129 -151
147 -180 329 -372 706 -745 351 -349 460 -451 638 -600 46 -38 105 -90 132
-113 47 -43 47 -44 41 -95 -15 -141 -119 -747 -130 -758 -4 -4 -1883 -9 -4175
-11 -3338 -2 -4169 0 -4180 10 -7 7 -17 54 -24 105 -6 50 -22 142 -34 202 -31
159 -38 203 -57 369 l-17 148 45 42 c25 22 101 90 169 150 187 163 340 306
485 451 368 367 666 680 808 847 86 102 163 189 170 192 6 2 1191 5 2632 4
l2620 0 42 -47z m813 -4417 c0 -22 -130 -262 -232 -428 -558 -910 -1386 -1647
-2158 -1921 -197 -70 -354 -113 -530 -149 -241 -47 -275 -51 -565 -51 -262 0
-290 2 -439 28 -305 54 -478 105 -781 231 -216 89 -507 261 -739 435 -584 440
-971 898 -1415 1676 -50 89 -91 168 -91 178 0 16 200 17 3475 17 3216 0 3475
-1 3475 -16z"/>
</g>
</svg>
